<svg data-v-423bf9ae="" xmlns="http://www.w3.org/2000/svg" viewBox="0 0 148.47058966525563 60" class="font"><!----><!----><!----><g data-v-423bf9ae="" id="a100c58c-73fa-4310-a274-664bec5d1695" fill="white" transform="matrix(5.88235305117351,0,0,5.88235305117351,-3.9411781463243756,-20.647059868776267)"><path d="M3.92 13.71L3.92 13.71Q3.09 13.71 2.15 13.48L2.15 13.48L2.15 13.48Q1.20 13.26 0.67 12.99L0.67 12.99L0.88 11.09L0.88 11.09Q2.73 11.98 4.13 11.98L4.13 11.98L4.13 11.98Q4.87 11.98 5.29 11.70L5.29 11.70L5.29 11.70Q5.71 11.41 5.71 10.85L5.71 10.85L5.71 10.85Q5.71 10.43 5.48 10.16L5.48 10.16L5.48 10.16Q5.25 9.88 4.82 9.70L4.82 9.70L4.82 9.70Q4.38 9.51 3.43 9.17L3.43 9.17L3.43 9.17Q2.53 8.86 1.95 8.52L1.95 8.52L1.95 8.52Q1.36 8.18 1.02 7.64L1.02 7.64L1.02 7.64Q0.67 7.10 0.67 6.31L0.67 6.31L0.67 6.31Q0.67 5.05 1.60 4.28L1.60 4.28L1.60 4.28Q2.52 3.51 4.24 3.51L4.24 3.51L4.24 3.51Q5.05 3.51 5.86 3.70L5.86 3.70L5.86 3.70Q6.66 3.88 7.34 4.14L7.34 4.14L7.15 5.98L7.15 5.98Q6.29 5.60 5.57 5.41L5.57 5.41L5.57 5.41Q4.84 5.22 4.13 5.22L4.13 5.22L4.13 5.22Q3.33 5.22 2.91 5.49L2.91 5.49L2.91 5.49Q2.49 5.75 2.49 6.26L2.49 6.26L2.49 6.26Q2.49 6.65 2.72 6.90L2.72 6.90L2.72 6.90Q2.94 7.15 3.33 7.32L3.33 7.32L3.33 7.32Q3.71 7.49 4.47 7.73L4.47 7.73L4.47 7.73Q6.16 8.26 6.94 8.95L6.94 8.95L6.94 8.95Q7.71 9.65 7.71 10.85L7.71 10.85L7.71 10.85Q7.71 12.00 6.92 12.85L6.92 12.85L6.92 12.85Q6.12 13.71 3.92 13.71L3.92 13.71ZM9.20 13.51L9.20 3.71L12.87 3.71L12.87 3.71Q14.27 3.71 15.37 4.30L15.37 4.30L15.37 4.30Q16.46 4.89 17.08 5.99L17.08 5.99L17.08 5.99Q17.70 7.10 17.70 8.61L17.70 8.61L17.70 8.61Q17.70 10.12 17.08 11.23L17.08 11.23L17.08 11.23Q16.46 12.33 15.37 12.92L15.37 12.92L15.37 12.92Q14.27 13.51 12.87 13.51L12.87 13.51L9.20 13.51ZM10.99 11.91L12.87 11.91L12.87 11.91Q14.27 11.91 15.00 11.04L15.00 11.04L15.00 11.04Q15.74 10.16 15.74 8.61L15.74 8.61L15.74 8.61Q15.74 7.06 15.00 6.18L15.00 6.18L15.00 6.18Q14.27 5.31 12.87 5.31L12.87 5.31L10.99 5.31L10.99 11.91ZM22.12 13.71L22.12 13.71Q21.29 13.71 20.35 13.48L20.35 13.48L20.35 13.48Q19.40 13.26 18.87 12.99L18.87 12.99L19.08 11.09L19.08 11.09Q20.93 11.98 22.33 11.98L22.33 11.98L22.33 11.98Q23.07 11.98 23.49 11.70L23.49 11.70L23.49 11.70Q23.91 11.41 23.91 10.85L23.91 10.85L23.91 10.85Q23.91 10.43 23.68 10.16L23.68 10.16L23.68 10.16Q23.45 9.88 23.02 9.70L23.02 9.70L23.02 9.70Q22.58 9.51 21.63 9.17L21.63 9.17L21.63 9.17Q20.73 8.86 20.15 8.52L20.15 8.52L20.15 8.52Q19.56 8.18 19.22 7.64L19.22 7.64L19.22 7.64Q18.87 7.10 18.87 6.31L18.87 6.31L18.87 6.31Q18.87 5.05 19.80 4.28L19.80 4.28L19.80 4.28Q20.72 3.51 22.44 3.51L22.44 3.51L22.44 3.51Q23.25 3.51 24.06 3.70L24.06 3.70L24.06 3.70Q24.86 3.88 25.54 4.14L25.54 4.14L25.35 5.98L25.35 5.98Q24.49 5.60 23.77 5.41L23.77 5.41L23.77 5.41Q23.04 5.22 22.33 5.22L22.33 5.22L22.33 5.22Q21.53 5.22 21.11 5.49L21.11 5.49L21.11 5.49Q20.69 5.75 20.69 6.26L20.69 6.26L20.69 6.26Q20.69 6.65 20.92 6.90L20.92 6.90L20.92 6.90Q21.14 7.15 21.53 7.32L21.53 7.32L21.53 7.32Q21.91 7.49 22.67 7.73L22.67 7.73L22.67 7.73Q24.36 8.26 25.14 8.95L25.14 8.95L25.14 8.95Q25.91 9.65 25.91 10.85L25.91 10.85L25.91 10.85Q25.91 12.00 25.12 12.85L25.12 12.85L25.12 12.85Q24.32 13.71 22.12 13.71L22.12 13.71Z"></path></g><!----><!----></svg>