<?xml version="1.0" standalone="no"?>
<!DOCTYPE svg PUBLIC "-//W3C//DTD SVG 1.0//EN" "http://www.w3.org/TR/2001/REC-SVG-20010904/DTD/svg10.dtd">
<svg xmlns="http://www.w3.org/2000/svg" xmlns:xlink="http://www.w3.org/1999/xlink" id="body_1" width="1024" height="768">

<g transform="matrix(24 0 0 24 128.00003 -0)">
	<g>
        <path d="M26.49 30L5.5 30C 4.563486 30.030973 3.656805 29.6683 3 29C 2.336885 28.347973 1.9746525 27.449635 2 26.52L2 26.52L2 5.5C 1.9690273 4.563486 2.3316994 3.656805 3 3C 3.656805 2.3316994 4.563486 1.9690273 5.5 2L5.5 2L26.5 2C 27.436516 1.9690273 28.343195 2.3316994 29 3C 29.6683 3.656805 30.030973 4.563486 30 5.5L30 5.5L30 26.5C 29.989027 28.432335 28.422356 29.994543 26.49 30zM23.24 15.3C 22.596592 14.832308 21.994392 14.310403 21.44 13.74C 21.766178 13.536327 22.077007 13.309055 22.37 13.059999C 23.29575 12.340541 24.174208 11.562285 25 10.73C 23.353334 9.690001 21.616669 8.55 19.79 7.3099995L19.79 7.3099995L19.6 7.3099995C 19.18 7.7099996 18.6 8.219999 17.800001 8.869999C 17.000002 9.519999 16.35 10.069999 16.000002 10.409999C 14.860002 9.5599985 13.630002 8.519999 12.300002 7.309999L12.300002 7.309999L12.050002 7.309999C 11.850002 7.4699993 10.133335 8.61 6.900002 10.73C 7.438222 11.331978 8.041958 11.871986 8.7 12.34C 9.61 13.03 10.219999 13.530001 10.559999 13.84C 8.4 15.57 7.1599994 16.56 6.8599997 16.84C 7.7952356 17.368702 8.700034 17.949644 9.57 18.58C 10.74 19.36 11.639999 19.93 12.2699995 20.3C 12.639999 19.99 13.2699995 19.46 14.139999 18.699999C 15.009999 17.939999 15.549999 17.539999 16.039999 17.199999C 18.199999 19.019999 19.47 20.06 19.829998 20.3C 21.743332 18.966667 23.479998 17.813334 25.039997 16.84C 24.478024 16.283817 23.876448 15.7691345 23.24 15.3zM16 17.1C 15.31 16.73 14.4 16.19 13.27 15.490001C 12.140001 14.790001 11.1 14.14 10.570001 13.840001C 12.570001 12.570002 14.34 11.440001 16 10.470001C 16.666668 10.916668 18.41 12.006668 21.23 13.740002C 20.401821 14.3694935 19.533295 14.944057 18.63 15.460002C 17.26 16.3 16.39 16.85 16 17.1zM21.33 19.93L19.67 20.93C 19.32 20.62 18.73 20.11 17.89 19.4C 17.05 18.689999 16.5 18.24 16.09 17.85C 15.380054 18.237656 14.729982 18.726051 14.16 19.300001C 13.549818 19.885708 12.879431 20.405258 12.16 20.85C 11.8956375 20.706305 11.638649 20.549442 11.389999 20.380001C 11.14566 20.19615 10.880497 20.041752 10.599999 19.920002L10.599999 19.920002L10.599999 21.120003C 11.11 21.400003 12.009999 21.930002 13.299999 22.720003C 14.429999 23.400003 15.299999 23.930004 16.029999 24.300003C 16.539999 24.000004 17.409998 23.460003 18.66 22.690002C 19.910002 21.920002 20.66 21.490002 21.36 21.120003z" stroke="none" fill="#000000" fill-rule="nonzero" />
	</g>
</g>
</svg>