<?xml version="1.0" standalone="no"?>
<!DOCTYPE svg PUBLIC "-//W3C//DTD SVG 1.0//EN" "http://www.w3.org/TR/2001/REC-SVG-20010904/DTD/svg10.dtd">
<svg xmlns="http://www.w3.org/2000/svg" xmlns:xlink="http://www.w3.org/1999/xlink" id="body_1" width="46" height="46">

<g transform="matrix(0.30666667 0 0 0.30666667 0 0)">
	<g transform="matrix(0.1 0 -0 -0.1 0 150)">
        <path d="M64 1493C 52 1491 34 1480 24 1468C 6 1449 5 1416 5 749L5 749L5 51L28 28L51 5L425 2L800 -1L800 290L800 580L705 580L610 580L610 695L610 810L704 810L798 810L801 938C 805 1053 808 1070 833 1122C 889 1237 969 1273 1152 1268L1152 1268L1265 1265L1268 1163L1271 1060L1180 1060C 1062 1060 1045 1046 1037 944C 1033 906 1032 862 1033 845L1033 845L1036 815L1148 812L1261 809L1256 777C 1250 744 1230 592 1230 584C 1230 582 1185 580 1131 580L1131 580L1031 580L1030 289L1029 -1L1239 2C 1443 5 1450 6 1472 28L1472 28L1495 51L1495 750L1495 1449L1472 1472L1449 1495L767 1496C 392 1497 75 1496 64 1493z" stroke="none" fill="#000000" fill-rule="nonzero" />
	</g>
</g>
</svg>