<?xml version="1.0" standalone="no"?>
<!DOCTYPE svg PUBLIC "-//W3C//DTD SVG 1.0//EN" "http://www.w3.org/TR/2001/REC-SVG-20010904/DTD/svg10.dtd">
<svg xmlns="http://www.w3.org/2000/svg" xmlns:xlink="http://www.w3.org/1999/xlink" id="body_1" width="46" height="46">

<g transform="matrix(0.30666667 0 0 0.30666667 0 0)">
	<g transform="matrix(0.1 0 -0 -0.1 0 150)">
        <path d="M144 1491C 93 1478 53 1449 28 1406L28 1406L5 1365L2 761L-1 157L24 105C 43 68 61 47 92 29L92 29L135 5L750 5L1365 5L1406 29C 1430 42 1458 70 1471 94L1471 94L1495 135L1495 750L1495 1365L1471 1406C 1458 1430 1430 1458 1406 1471L1406 1471L1365 1495L770 1497C 443 1498 161 1495 144 1491zM1092 1233C 1167 1198 1216 1142 1240 1061C 1260 996 1261 974 1258 723C 1255 474 1253 452 1233 408C 1199 334 1142 285 1065 261C 1005 242 972 240 750 240C 528 240 495 242 435 261C 358 285 301 334 267 408C 247 452 245 474 242 723C 239 974 240 996 260 1061C 290 1162 355 1222 465 1251C 482 1255 619 1258 770 1257C 1028 1255 1048 1253 1092 1233z" stroke="none" fill="#000000" fill-rule="nonzero" />
        <path d="M487 1159C 423 1144 392 1122 363 1072L363 1072L335 1025L335 755C 335 500 336 482 356 439C 372 404 390 385 426 364L426 364L475 335L750 335L1025 335L1074 364C 1110 385 1128 404 1144 439C 1164 482 1165 500 1165 755L1165 755L1165 1025L1136 1074C 1115 1110 1096 1128 1061 1144C 1018 1163 997 1165 770 1167C 635 1168 508 1165 487 1159zM1061 1070C 1083 1058 1088 999 1068 982C 1037 958 1011 959 985 985C 959 1011 958 1037 982 1068C 995 1083 1034 1084 1061 1070zM834 998C 889 982 982 889 998 834C 1028 730 1007 646 930 570C 854 493 770 472 666 502C 611 518 518 611 502 666C 472 770 493 854 570 930C 600 961 641 991 660 997C 708 1012 784 1012 834 998z" stroke="none" fill="#000000" fill-rule="nonzero" />
        <path d="M675 900C 593 859 559 760 599 678C 629 616 679 585 750 585C 821 585 871 616 901 678C 941 760 907 860 824 900C 773 925 726 925 675 900z" stroke="none" fill="#000000" fill-rule="nonzero" />
	</g>
</g>
</svg>