<?xml version="1.0" standalone="no"?>
<!DOCTYPE svg PUBLIC "-//W3C//DTD SVG 1.0//EN" "http://www.w3.org/TR/2001/REC-SVG-20010904/DTD/svg10.dtd">
<svg xmlns="http://www.w3.org/2000/svg" xmlns:xlink="http://www.w3.org/1999/xlink" id="body_1" width="102" height="77">

<g transform="matrix(2.40625 0 0 2.40625 12.5 -0)">
	<g>
        <path d="M26.49 29.86L5.5 29.86C 4.5742464 29.880163 3.6809835 29.518517 3.03 28.86C 2.3694599 28.210367 2.007445 27.31619 2.03 26.390001L2.03 26.390001L2.03 5.48C 1.9979665 4.5550194 2.3489 3.6577868 3 3C 3.658184 2.3337743 4.5639186 1.9714806 5.5 2L5.5 2L26.5 2C 27.435867 1.9726949 28.341135 2.334802 29 3C 29.656971 3.6479073 30.018585 4.5374765 30 5.46L30 5.46L30 26.37C 30.022554 27.29619 29.66054 28.190367 29 28.84C 28.342165 29.515123 27.432293 29.884872 26.49 29.86zM21.11 23.150002C 21.522537 23.186834 21.893484 22.898806 21.960001 22.490002L21.960001 22.490002L24.73 9.24C 24.746101 9.066833 24.679352 8.896251 24.55 8.78C 24.438993 8.67468 24.292963 8.61413 24.14 8.61C 24.086668 8.61 18.576668 10.646667 7.6099987 14.719999C 7.355538 14.801188 7.187361 15.0432 7.199999 15.309999C 7.214322 15.558666 7.3884463 15.769236 7.6299987 15.83L7.6299987 15.83L11.629999 17.07L13.239999 21.9C 13.326556 22.170834 13.586243 22.348082 13.869999 22.33C 14.0207815 22.329494 14.164989 22.268206 14.269999 22.16L14.269999 22.16L16.54 20L20.630001 23C 20.772497 23.094595 20.938997 23.146626 21.11 23.15zM13.8 20.71L12.59 16.71C 18.403336 13.009999 21.330002 11.16 21.369999 11.159999C 21.519999 11.159999 21.599998 11.159999 21.599998 11.319999C 21.603355 11.339857 21.603355 11.36014 21.599998 11.379999C 21.599998 11.379999 19.089998 13.679999 14.079998 18.18z" stroke="none" fill="#000000" fill-rule="nonzero" />
	</g>
</g>
</svg>