<?xml version="1.0" standalone="no"?>
<!DOCTYPE svg PUBLIC "-//W3C//DTD SVG 1.0//EN" "http://www.w3.org/TR/2001/REC-SVG-20010904/DTD/svg10.dtd">
<svg xmlns="http://www.w3.org/2000/svg" xmlns:xlink="http://www.w3.org/1999/xlink" id="body_1" width="46" height="46">

<g transform="matrix(0.9583334 0 0 0.9583334 0 0)">
	<g transform="matrix(0.09375 0 0 0.09375 0 0)">
		<g transform="matrix(0.1 0 -0 -0.1 0 512)">
            <path d="M2378 5110C 1348 5036 456 4342 135 3365C -10 2925 -34 2449 66 2003C 281 1040 1041 279 2000 66C 2361 -14 2760 -14 3117 66C 4082 281 4839 1038 5054 2003C 5134 2362 5134 2758 5054 3120C 4840 4079 4079 4840 3120 5054C 2891 5105 2606 5126 2378 5110zM3105 3973C 3127 3802 3181 3671 3275 3557C 3397 3409 3579 3314 3777 3294L3777 3294L3840 3287L3840 3051L3840 2815L3746 2821C 3694 2825 3626 2834 3595 2840C 3459 2868 3285 2942 3168 3021C 3137 3043 3109 3060 3106 3060C 3104 3060 3102 2796 3103 2473C 3105 1891 3105 1884 3082 1795C 2999 1469 2749 1215 2425 1129C 2305 1098 2131 1093 2010 1118C 1649 1192 1369 1468 1295 1821C 1275 1913 1276 2091 1296 2188C 1313 2273 1360 2391 1412 2477C 1456 2550 1578 2681 1654 2735C 1828 2858 2065 2925 2260 2905L2260 2905L2330 2898L2330 2655L2330 2412L2293 2422C 2272 2428 2215 2430 2165 2428C 2051 2423 1965 2385 1887 2305C 1638 2052 1779 1632 2132 1577C 2362 1541 2586 1710 2620 1945C 2626 1987 2630 2410 2630 3018L2630 3018L2630 4020L2864 4020L3099 4020L3105 3973z" stroke="none" fill="#000000" fill-rule="nonzero" />
		</g>
	</g>
</g>
</svg>