<?xml version="1.0" standalone="no"?>
<!DOCTYPE svg PUBLIC "-//W3C//DTD SVG 1.0//EN" "http://www.w3.org/TR/2001/REC-SVG-20010904/DTD/svg10.dtd">
<svg xmlns="http://www.w3.org/2000/svg" xmlns:xlink="http://www.w3.org/1999/xlink" id="body_1" width="46" height="46">

<g transform="matrix(0.30666667 0 0 0.30666667 0 0)">
	<g transform="matrix(0.1 0 -0 -0.1 0 150)">
        <path d="M144 1491C 93 1478 53 1449 28 1406L28 1406L5 1365L5 750L5 135L29 94C 42 70 70 42 94 29L94 29L135 5L750 5L1365 5L1406 29C 1430 42 1458 70 1471 94L1471 94L1495 135L1495 750L1495 1365L1471 1406C 1458 1430 1430 1458 1406 1471L1406 1471L1365 1495L770 1497C 443 1498 161 1495 144 1491zM1066 1091C 1089 1081 1111 1067 1114 1061C 1125 1045 1149 1048 1213 1074L1213 1074L1270 1098L1248 1058C 1235 1036 1214 1009 1201 999C 1173 976 1181 975 1243 994L1243 994L1290 1008L1270 980C 1259 964 1236 940 1220 926C 1195 906 1190 894 1190 857C 1190 794 1156 669 1115 584C 1068 486 962 378 864 327C 695 240 482 236 310 318L310 318L255 344L343 357C 456 373 610 450 530 450C 484 450 402 509 374 562L374 562L360 589L403 592L445 595L397 623C 339 657 290 728 290 777C 290 807 292 810 309 800C 320 795 338 790 350 790C 371 790 371 791 344 823C 329 840 311 869 303 887C 287 926 286 1010 301 1044L301 1044L313 1069L377 1011C 470 926 637 850 732 850C 759 850 760 852 760 899C 760 926 764 960 770 974C 783 1010 850 1081 885 1096C 929 1115 1018 1113 1066 1091z" stroke="none" fill="#000000" fill-rule="nonzero" />
	</g>
</g>
</svg>