<?xml version="1.0" standalone="no"?>
<!DOCTYPE svg PUBLIC "-//W3C//DTD SVG 1.0//EN" "http://www.w3.org/TR/2001/REC-SVG-20010904/DTD/svg10.dtd">
<svg xmlns="http://www.w3.org/2000/svg" xmlns:xlink="http://www.w3.org/1999/xlink" id="body_1" width="46" height="46">

<g transform="matrix(0.30666667 0 0 0.30666667 0 0)">
	<g transform="matrix(0.1 0 -0 -0.1 0 150)">
        <path d="M144 1491C 93 1478 53 1449 28 1406L28 1406L5 1365L5 750L5 135L29 94C 42 70 70 42 94 29L94 29L135 5L750 5L1365 5L1406 29C 1430 42 1458 70 1471 94L1471 94L1495 135L1495 750L1495 1365L1471 1406C 1458 1430 1430 1458 1406 1471L1406 1471L1365 1495L770 1497C 443 1498 161 1495 144 1491zM1059 1090C 1231 1074 1252 1051 1271 859C 1281 759 1281 707 1272 609C 1250 391 1240 383 950 367C 804 359 696 359 550 367C 259 383 249 391 228 613C 219 712 219 765 229 857C 248 1045 274 1076 427 1089C 553 1101 937 1101 1059 1090z" stroke="none" fill="#000000" fill-rule="nonzero" />
        <path d="M640 730L640 568L673 588C 690 599 749 633 803 665C 857 697 903 726 905 730C 909 736 767 822 648 887C 643 889 640 819 640 730z" stroke="none" fill="#000000" fill-rule="nonzero" />
	</g>
</g>
</svg>